<?xml version="1.0" encoding="UTF-8" standalone="no"?>
<!DOCTYPE svg PUBLIC "-//W3C//DTD SVG 1.1//EN" "http://www.w3.org/Graphics/SVG/1.1/DTD/svg11.dtd">
<svg version="1.1" xmlns="http://www.w3.org/2000/svg" xmlns:xlink="http://www.w3.org/1999/xlink" preserveAspectRatio="xMidYMid meet" viewBox="-1 -1 514 514" width="510" height="510"><defs><path d="M463.17 0.17L465.22 0.38L467.24 0.67L469.24 1.04L471.22 1.49L473.16 2.01L475.08 2.61L476.96 3.28L478.8 4.02L480.61 4.84L482.39 5.71L484.12 6.66L485.81 7.67L487.46 8.74L489.07 9.87L490.63 11.07L492.14 12.32L493.61 13.62L495.02 14.98L496.38 16.39L497.68 17.86L498.93 19.37L500.13 20.93L501.26 22.54L502.33 24.19L503.34 25.88L504.29 27.61L505.16 29.39L505.98 31.2L506.72 33.04L507.39 34.92L507.99 36.84L508.51 38.78L508.96 40.76L509.33 42.76L509.62 44.78L509.83 46.83L509.96 48.91L510 51L510 459L509.96 461.09L509.83 463.17L509.62 465.22L509.33 467.24L508.96 469.24L508.51 471.22L507.99 473.16L507.39 475.08L506.72 476.96L505.98 478.8L505.16 480.61L504.29 482.39L503.34 484.12L502.33 485.81L501.26 487.46L500.13 489.07L498.93 490.63L497.68 492.14L496.38 493.61L495.02 495.02L493.61 496.38L492.14 497.68L490.63 498.93L489.07 500.13L487.46 501.26L485.81 502.33L484.12 503.34L482.39 504.29L480.61 505.16L478.8 505.98L476.96 506.72L475.08 507.39L473.16 507.99L471.22 508.51L469.24 508.96L467.24 509.33L465.22 509.62L463.17 509.83L461.09 509.96L459 510L51 510L48.91 509.96L46.83 509.83L44.78 509.62L42.76 509.33L40.76 508.96L38.78 508.51L36.84 507.99L34.92 507.39L33.04 506.72L31.2 505.98L29.39 505.16L27.61 504.29L25.88 503.34L24.19 502.33L22.54 501.26L20.93 500.13L19.37 498.93L17.86 497.68L16.39 496.38L14.98 495.02L13.62 493.61L12.32 492.14L11.07 490.63L9.87 489.07L8.74 487.46L7.67 485.81L6.66 484.12L5.71 482.39L4.84 480.61L4.02 478.8L3.28 476.96L2.61 475.08L2.01 473.16L1.49 471.22L1.04 469.24L0.67 467.24L0.38 465.22L0.17 463.17L0.04 461.09L0 459L0 51L0.04 48.91L0.17 46.83L0.38 44.78L0.67 42.76L1.04 40.76L1.49 38.78L2.01 36.84L2.61 34.92L3.28 33.04L4.02 31.2L4.84 29.39L5.71 27.61L6.66 25.88L7.67 24.19L8.74 22.54L9.87 20.93L11.07 19.37L12.32 17.86L13.62 16.39L14.98 14.98L16.39 13.62L17.86 12.32L19.37 11.07L20.93 9.87L22.54 8.74L24.19 7.67L25.88 6.66L27.61 5.71L29.39 4.84L31.2 4.02L33.04 3.28L34.92 2.61L36.84 2.01L38.78 1.49L40.76 1.04L42.76 0.67L44.78 0.38L46.83 0.17L48.91 0.04L51 0L459 0L461.09 0.04L463.17 0.17ZM340.77 199.01L339.01 199.15L337.23 199.35L335.44 199.6L333.65 199.9L331.84 200.25L330.03 200.65L328.22 201.11L326.4 201.61L324.58 202.16L322.77 202.76L320.96 203.4L319.15 204.09L317.36 204.82L315.57 205.59L313.79 206.41L312.03 207.27L310.28 208.16L308.55 209.1L306.84 210.08L305.15 211.09L303.48 212.14L301.84 213.22L300.22 214.34L298.64 215.49L297.08 216.68L295.56 217.89L294.07 219.14L292.61 220.42L291.2 221.72L289.82 223.05L288.49 224.41L287.2 225.8L285.96 227.21L284.76 228.64L283.62 230.1L282.52 231.58L281.48 233.08L280.5 234.6L280.5 204L204 204L204 433.5L280.5 433.5L280.5 298.35L280.53 296.83L280.63 295.31L280.79 293.81L281.02 292.32L281.31 290.85L281.65 289.39L282.06 287.96L282.52 286.54L283.04 285.14L283.61 283.77L284.23 282.42L284.91 281.09L285.63 279.79L286.4 278.52L287.22 277.28L288.09 276.07L289 274.9L289.95 273.75L290.94 272.65L291.98 271.58L293.05 270.54L294.15 269.55L295.3 268.6L296.47 267.69L297.68 266.82L298.92 266L300.19 265.23L301.49 264.51L302.82 263.83L304.17 263.21L305.54 262.64L306.94 262.12L308.36 261.66L309.79 261.25L311.25 260.91L312.72 260.62L314.21 260.39L315.71 260.23L317.23 260.13L318.75 260.1L320.27 260.13L321.79 260.23L323.29 260.39L324.78 260.62L326.25 260.91L327.71 261.25L329.14 261.66L330.56 262.12L331.96 262.64L333.33 263.21L334.68 263.83L336.01 264.51L337.31 265.23L338.58 266L339.82 266.82L341.03 267.69L342.2 268.6L343.35 269.55L344.45 270.54L345.53 271.58L346.56 272.65L347.55 273.75L348.5 274.9L349.41 276.07L350.28 277.28L351.1 278.52L351.87 279.79L352.59 281.09L353.27 282.42L353.89 283.77L354.46 285.14L354.98 286.54L355.44 287.96L355.85 289.39L356.19 290.85L356.48 292.32L356.71 293.81L356.87 295.31L356.97 296.83L357 298.35L357 433.5L433.5 433.5L433.5 288.15L433.42 284.53L433.2 280.94L432.83 277.39L432.31 273.88L431.65 270.4L430.86 266.98L429.93 263.59L428.87 260.26L427.68 256.99L426.37 253.76L424.93 250.6L423.38 247.51L421.71 244.47L419.93 241.51L418.04 238.62L416.04 235.8L413.94 233.07L411.73 230.41L409.44 227.84L407.04 225.36L404.56 222.96L401.99 220.67L399.33 218.46L396.6 216.36L393.78 214.36L390.89 212.47L387.93 210.69L384.89 209.02L381.8 207.47L378.64 206.03L375.41 204.72L372.14 203.53L368.81 202.47L365.42 201.54L362 200.75L358.52 200.09L355.01 199.57L351.46 199.2L347.87 198.98L344.25 198.9L342.52 198.93L340.77 199.01ZM76.5 433.5L153 433.5L153 204L76.5 204L76.5 433.5ZM110.97 69L109.11 69.19L107.27 69.45L105.46 69.78L103.67 70.18L101.91 70.64L100.18 71.18L98.49 71.77L96.82 72.44L95.19 73.16L93.59 73.94L92.03 74.79L90.51 75.69L89.02 76.65L87.58 77.66L86.18 78.73L84.82 79.85L83.5 81.02L82.24 82.24L81.02 83.5L79.85 84.82L78.73 86.18L77.66 87.58L76.65 89.02L75.69 90.51L74.79 92.03L73.94 93.59L73.16 95.19L72.44 96.82L71.77 98.49L71.18 100.18L70.64 101.91L70.18 103.67L69.78 105.46L69.45 107.27L69.19 109.11L69 110.97L68.89 112.85L68.85 114.75L68.89 116.65L69 118.53L69.19 120.39L69.45 122.23L69.78 124.04L70.18 125.83L70.64 127.59L71.18 129.32L71.77 131.01L72.44 132.68L73.16 134.31L73.94 135.91L74.79 137.47L75.69 138.99L76.65 140.48L77.66 141.92L78.73 143.32L79.85 144.68L81.02 146L82.24 147.26L83.5 148.48L84.82 149.65L86.18 150.77L87.58 151.84L89.02 152.85L90.51 153.81L92.03 154.71L93.59 155.56L95.19 156.34L96.82 157.06L98.49 157.73L100.18 158.32L101.91 158.86L103.67 159.32L105.46 159.72L107.27 160.05L109.11 160.31L110.97 160.5L112.85 160.61L114.75 160.65L116.65 160.61L118.53 160.5L120.39 160.31L122.23 160.05L124.04 159.72L125.83 159.32L127.59 158.86L129.32 158.32L131.01 157.73L132.68 157.06L134.31 156.34L135.91 155.56L137.47 154.71L138.99 153.81L140.48 152.85L141.92 151.84L143.32 150.77L144.68 149.65L146 148.48L147.26 147.26L148.48 146L149.65 144.68L150.77 143.32L151.84 141.92L152.85 140.48L153.81 138.99L154.71 137.47L155.56 135.91L156.34 134.31L157.06 132.68L157.73 131.01L158.32 129.32L158.86 127.59L159.32 125.83L159.72 124.04L160.05 122.23L160.31 120.39L160.5 118.53L160.61 116.65L160.65 114.75L160.61 112.85L160.5 110.97L160.31 109.11L160.05 107.27L159.72 105.46L159.32 103.67L158.86 101.91L158.32 100.18L157.73 98.49L157.06 96.82L156.34 95.19L155.56 93.59L154.71 92.03L153.81 90.51L152.85 89.02L151.84 87.58L150.77 86.18L149.65 84.82L148.48 83.5L147.26 82.24L146 81.02L144.68 79.85L143.32 78.73L141.92 77.66L140.48 76.65L138.99 75.69L137.47 74.79L135.91 73.94L134.31 73.16L132.68 72.44L131.01 71.77L129.32 71.18L127.59 70.64L125.83 70.18L124.04 69.78L122.23 69.45L120.39 69.19L118.53 69L116.65 68.89L114.75 68.85L112.85 68.89L110.97 69Z" id="a2LyMlocs"></path></defs><g><g><use xlink:href="#a2LyMlocs" opacity="1" fill="#ffffff" fill-opacity="1"></use><g><use xlink:href="#a2LyMlocs" opacity="1" fill-opacity="0" stroke="#000000" stroke-width="1" stroke-opacity="0"></use></g></g></g></svg>