<?xml version="1.0" encoding="UTF-8" standalone="no"?>
<!DOCTYPE svg PUBLIC "-//W3C//DTD SVG 1.1//EN" "http://www.w3.org/Graphics/SVG/1.1/DTD/svg11.dtd">
<svg version="1.1" xmlns="http://www.w3.org/2000/svg" xmlns:xlink="http://www.w3.org/1999/xlink" preserveAspectRatio="xMidYMid meet" viewBox="-1 -1 556.9990001844146 556.9990001844146" width="553" height="553"><defs><path d="M308.55 341.3C308.55 337.44 308.55 318.12 308.55 283.33L284.42 283.33L284.42 460.83L308.55 460.83C308.55 453.05 308.55 448.73 308.55 447.86C316.46 457.71 324.62 462.63 333.03 462.63C342.87 462.63 349.22 457.59 352.11 447.51C353.78 442.46 354.63 433.71 354.63 421.22C354.63 415.97 354.63 373.91 354.63 368.66C354.63 355.94 353.78 347.06 352.11 342.02C349.22 331.94 342.87 326.91 333.03 326.91C324.39 326.91 316.22 331.7 308.55 341.3ZM320.42 440.66C316.34 440.66 312.38 438.75 308.55 434.91C308.55 426.85 308.55 362.32 308.55 354.26C312.38 350.43 316.34 348.51 320.42 348.51C327.38 348.51 330.87 354.51 330.87 366.51C330.87 370.28 330.87 389.12 330.87 423.03C328.55 434.78 325.06 440.66 320.42 440.66Z" id="e1VF4lt6ID"></path><path d="M380.54 340.59C375.74 347.06 373.34 357.4 373.34 371.55C373.34 376.19 373.34 413.35 373.34 418C373.34 432.16 375.86 442.47 380.91 448.96C387.86 458.08 397.59 462.64 410.07 462.64C422.79 462.64 432.39 457.84 438.87 448.23C441.75 443.91 443.55 439.12 444.27 433.83C444.75 430.48 444.99 425.31 444.99 418.34C444.99 418.13 444.99 417.05 444.99 415.11C430.3 415.11 422.14 415.11 420.51 415.11C420.51 417.75 420.51 420.33 420.51 422.84C420.51 425.35 420.45 427.34 420.33 428.79C420.21 430.22 420.15 431.06 420.15 431.3C418.71 437.55 415.11 440.65 409.35 440.65C401.19 440.65 397.11 434.53 397.11 422.3C397.11 420.74 397.11 412.94 397.11 398.9L444.99 398.9C444.99 382.48 444.99 373.37 444.99 371.54C444.99 357.63 442.47 347.31 437.44 340.58C430.95 331.48 421.59 326.91 409.35 326.91C397.11 326.91 387.5 331.48 380.54 340.59ZM397.11 379.11C397.11 371.76 397.11 367.67 397.11 366.86C397.11 354.62 401.07 348.51 408.99 348.51C416.91 348.51 420.87 354.63 420.87 366.86C420.87 367.67 420.87 371.76 420.87 379.11L397.11 379.11Z" id="aeP0et2kt"></path><path d="M224.65 440.66C221.29 440.66 219.49 438.86 219.26 435.26C219.01 434.79 218.9 431.66 218.9 425.91C218.9 419.43 218.9 387.03 218.9 328.7L195.14 328.7C195.14 391.35 195.14 426.15 195.14 433.11C195.14 442.24 195.86 448.71 197.3 452.55C199.46 459.28 204.5 462.63 212.42 462.63C221.3 462.63 230.42 457.23 239.78 446.43C239.78 447.39 239.78 452.19 239.78 460.83L263.9 460.83L263.9 328.71L239.78 328.71L239.78 429.51L239.77 429.51C232.89 436.94 227.85 440.66 224.65 440.66Z" id="al3957AbU"></path><path d="M282.62 174.61C282.62 168.99 282.62 124.05 282.62 118.44C282.62 105.96 278.78 99.72 271.1 99.72C263.42 99.72 259.58 105.96 259.58 118.44C259.58 124.05 259.58 168.99 259.58 174.61C259.58 186.85 263.42 192.98 271.1 192.98C278.78 192.98 282.62 186.85 282.62 174.61Z" id="f22pzQL9rI"></path><path d="M136.09 308.54L136.09 460.83L162.73 460.83L162.73 308.54L191.53 308.54L191.53 283.33L108.01 283.33L108.01 308.54L136.09 308.54Z" id="e3gc2NAp4a"></path><path d="M103.69 0C75.13 0 50.71 10.15 30.42 30.42C10.14 50.71 0 75.13 0 103.69C0 138.25 0 414.75 0 449.31C0 477.87 10.14 502.3 30.42 522.56C50.7 542.84 75.12 553 103.69 553C138.25 553 414.75 553 449.32 553C477.87 553 502.29 542.85 522.58 522.56C542.85 502.3 553 477.87 553 449.31C553 414.75 553 138.25 553 103.69C553 75.13 542.85 50.71 522.58 30.42C502.29 10.15 477.87 0 449.32 0C380.19 0 138.25 0 103.69 0ZM350.67 79.92C350.67 138.68 350.67 171.32 350.67 177.84C350.67 183.61 350.79 186.73 351.03 187.21C351.27 191.07 353.19 192.98 356.79 192.98C361.58 192.98 366.62 189.26 371.9 181.81C371.9 175.02 371.9 141.06 371.9 79.92L396.02 79.92L396.02 213.13L371.9 213.13C371.9 204.49 371.9 199.69 371.9 198.73C362.06 209.53 352.82 214.93 344.18 214.93C336.49 214.93 331.34 211.69 328.7 205.21C327.26 200.89 326.54 194.3 326.54 185.41C326.54 178.38 326.54 143.22 326.54 79.92L326.55 79.92L350.67 79.92ZM243.02 91.81C249.5 82.7 258.86 78.13 271.1 78.13C282.85 78.13 292.21 82.7 299.18 91.81C304.22 98.77 306.73 109.22 306.73 123.12C306.73 127.8 306.73 165.25 306.73 169.93C306.73 184.33 304.21 194.78 299.18 201.24C292.21 210.37 282.85 214.93 271.1 214.93C258.86 214.93 249.5 210.37 243.02 201.24C237.98 194.3 235.45 183.86 235.45 169.93C235.45 166.81 235.45 151.21 235.45 123.12C237.13 106.88 239.66 96.45 243.02 91.81ZM189.74 104.41L208.1 34.2L235.1 34.2L202.7 140.78L202.7 213.13L176.06 213.13C176.06 169.72 176.06 145.6 176.06 140.78C173.42 127.57 167.9 108.62 159.5 83.89C157.81 78.38 155.05 70.09 151.21 59.04C147.37 48.02 144.49 39.73 142.57 34.21C144.44 34.21 153.8 34.21 170.66 34.21L189.74 104.41ZM452.01 495.04C444.21 502.24 435.15 506.44 424.83 507.63C391.95 511.23 342.5 513.04 276.5 513.04C210.49 513.04 161.05 511.24 128.18 507.63C117.85 506.44 108.79 502.23 101 495.04C93.2 487.83 88.09 479.09 85.7 468.75C80.9 448.59 78.5 417.39 78.5 375.14C78.5 333.63 80.9 302.42 85.7 281.54C88.1 270.99 93.2 262.17 101 255.08C108.79 248 117.98 243.86 128.54 242.65C161.18 239.05 210.5 237.25 276.51 237.25C342.75 237.25 392.19 239.04 424.84 242.65C435.16 243.86 444.28 247.99 452.2 255.08C460.13 262.17 465.28 270.99 467.68 281.54C472.24 301.46 474.52 332.66 474.52 375.14C474.51 417.39 472.11 448.59 467.32 468.75C464.91 479.08 459.81 487.83 452.01 495.04Z" id="b2GuaBKwEl"></path></defs><g><g><use xlink:href="#e1VF4lt6ID" opacity="1" fill="#ffffff" fill-opacity="1"></use><g><use xlink:href="#e1VF4lt6ID" opacity="1" fill-opacity="0" stroke="#000000" stroke-width="1" stroke-opacity="0"></use></g></g><g><use xlink:href="#aeP0et2kt" opacity="1" fill="#ffffff" fill-opacity="1"></use><g><use xlink:href="#aeP0et2kt" opacity="1" fill-opacity="0" stroke="#000000" stroke-width="1" stroke-opacity="0"></use></g></g><g><use xlink:href="#al3957AbU" opacity="1" fill="#ffffff" fill-opacity="1"></use><g><use xlink:href="#al3957AbU" opacity="1" fill-opacity="0" stroke="#000000" stroke-width="1" stroke-opacity="0"></use></g></g><g><use xlink:href="#f22pzQL9rI" opacity="1" fill="#ffffff" fill-opacity="1"></use><g><use xlink:href="#f22pzQL9rI" opacity="1" fill-opacity="0" stroke="#000000" stroke-width="1" stroke-opacity="0"></use></g></g><g><use xlink:href="#e3gc2NAp4a" opacity="1" fill="#ffffff" fill-opacity="1"></use><g><use xlink:href="#e3gc2NAp4a" opacity="1" fill-opacity="0" stroke="#000000" stroke-width="1" stroke-opacity="0"></use></g></g><g><use xlink:href="#b2GuaBKwEl" opacity="1" fill="#ffffff" fill-opacity="1"></use><g><use xlink:href="#b2GuaBKwEl" opacity="1" fill-opacity="0" stroke="#000000" stroke-width="1" stroke-opacity="0"></use></g></g></g></svg>