<?xml version="1.0" encoding="utf-8"?>
<!-- Generator: Adobe Illustrator 22.0.1, SVG Export Plug-In . SVG Version: 6.00 Build 0)  -->
<svg version="1.1" xmlns="http://www.w3.org/2000/svg" xmlns:xlink="http://www.w3.org/1999/xlink" x="0px" y="0px"
	 viewBox="180 300 1500 580" style="enable-background:new 0 0 1920 1080;" xml:space="preserve">
<style type="text/css">
	.st0{fill:#FFFFFF;}
	.st1{fill:#FF9311;}
	.st2{fill:#D64700;}
</style>
<g id="Layer_5">
	<g>
		<path class="st0" d="M720,608.8c0,44.7-31.3,74.9-77.1,74.9c-46.3,0-77.6-30.2-77.6-74.9c0-44.4,31.3-74.3,77.6-74.3
			C688.7,534.5,720,564.4,720,608.8z M601.3,609.3c0,26.3,17,44.4,41.7,44.4c24.1,0,41.1-18.1,41.1-44.4c0-26.3-17-44.4-41.1-44.4
			C618.3,564.9,601.3,583,601.3,609.3z"/>
		<path class="st0" d="M886.7,590.7v91.6h-35.9v-81.2c0-20.6-12.3-33.2-32.6-33.2c-24.1,0.3-38.4,18.1-38.4,42.2v72.1h-35.7V535.6
			h35.7V563c10.4-19.5,28.8-28.5,52.7-28.8C866.2,534.2,886.7,555.9,886.7,590.7z"/>
		<path class="st0" d="M982.4,565.7c-23.6,0-40,17.6-40,43.3c0,26.3,16.5,43.9,40,43.9c17,0,30.7-5.8,39.5-17.3l22.2,18.4
			c-12.9,18.6-34.8,29.6-63.6,29.6c-43.9,0-74-30.2-74-74.3c0-44.7,30.4-74.9,74.6-74.9c26.9,0,48.3,9.9,61.4,26.9l-21.7,20.6
			C1011.5,571.8,998.6,565.7,982.4,565.7z"/>
		<path class="st0" d="M1169.7,634.6l20.8,19.2c-16.7,20-38.7,29.9-64.4,29.9c-45.8,0-77.1-29.9-77.1-74.6
			c0-43.6,28.8-74.3,74.3-74.6c40.9-0.5,68.3,24.7,70.2,65.5l-104.5,29.6c6.9,15.9,21.1,25.5,39.5,25.5
			C1144,655.1,1158.2,648,1169.7,634.6z M1085,605.8l73.8-21.1c-6-15.4-17.3-22.2-33.5-22.2C1100.9,562.4,1085.6,577.5,1085,605.8z"
			/>
		<path class="st0" d="M1301.4,534.2v34.6c-31-1.9-49.9,16.2-49.9,42.8v70.8h-35.7V535.6h35.7v28.2
			C1261.3,544.6,1278.6,534.5,1301.4,534.2z"/>
		<path class="st0" d="M1396,673.2c-11.5,6.9-24.4,10.7-36.2,10.7c-24.7,0-43.9-16.5-43.9-48.3V501.3h35.7v40.3h42v26.1h-42v61.7
			c0,15.9,5.8,23,15.6,23c5.8,0,12.6-2.2,20.6-6L1396,673.2z"/>
		<path class="st1" d="M1453.8,493.6c0,11.5-8,19.7-19.2,19.7c-11.2,0-19.2-8.2-19.2-19.7c0-11.5,8-19.7,19.2-19.7
			C1445.9,473.9,1453.8,482.1,1453.8,493.6z M1452.5,535.6v146.7h-35.7V535.6H1452.5z"/>
		<path class="st1" d="M1631,608.8c0,44.7-31.3,74.9-77.1,74.9c-46.3,0-77.6-30.2-77.6-74.9c0-44.4,31.3-74.3,77.6-74.3
			C1599.7,534.5,1631,564.4,1631,608.8z M1512.3,609.3c0,26.3,17,44.4,41.7,44.4c24.1,0,41.1-18.1,41.1-44.4
			c0-26.3-17-44.4-41.1-44.4C1529.3,564.9,1512.3,583,1512.3,609.3z"/>
	</g>
</g>
<g id="Think_C">
	<path class="st0" d="M542.2,659.7c-18.1,20.3-44.5,33.1-73.8,33.1c-54.6,0-98.9-44.3-98.9-98.9c0-54.6,44.3-98.9,98.9-98.9
		c36.7,0,68.8,20,85.8,49.8l36.6-36.6c-27.5-38.6-72.6-63.7-123.6-63.7c-83.8,0-151.7,67.9-151.7,151.7
		c0,83.8,67.9,151.7,151.7,151.7c44.8,0,85-19.4,112.8-50.3L542.2,659.7z"/>
</g>
<g id="Dots">
	<g>
		
			<ellipse transform="matrix(0.9986 -5.260428e-02 5.260428e-02 0.9986 -21.1375 33.9709)" class="st2" cx="634.8" cy="418.5" rx="39.3" ry="39.3"/>
		
			<ellipse transform="matrix(0.9986 -5.260430e-02 5.260430e-02 0.9986 -18.5298 29.6424)" class="st1" cx="553.8" cy="366.8" rx="36.5" ry="36.5"/>
		
			<ellipse transform="matrix(0.9986 -5.260427e-02 5.260427e-02 0.9986 -17.6523 24.7678)" class="st1" cx="461.7" cy="347.7" rx="33.7" ry="33.7"/>
		
			<ellipse transform="matrix(0.9986 -5.260427e-02 5.260427e-02 0.9986 -18.8488 19.7703)" class="st1" cx="366.1" cy="368" rx="30.9" ry="30.9"/>
		
			<ellipse transform="matrix(0.9986 -5.260422e-02 5.260422e-02 0.9986 -21.7381 15.6457)" class="st1" cx="286.3" cy="420.8" rx="28.1" ry="28.1"/>
		
			<ellipse transform="matrix(0.9986 -5.260430e-02 5.260430e-02 0.9986 -26.0697 12.9198)" class="st1" cx="232.4" cy="501.7" rx="25.3" ry="25.3"/>
		
			<ellipse transform="matrix(0.9986 -5.260437e-02 5.260437e-02 0.9986 -30.9715 12.1318)" class="st1" cx="215" cy="594.4" rx="22.5" ry="22.5"/>
		
			<ellipse transform="matrix(0.9986 -5.260487e-02 5.260487e-02 0.9986 -35.9421 13.239)" class="st1" cx="233.5" cy="689.4" rx="19.7" ry="19.7"/>
		
			<ellipse transform="matrix(0.9986 -5.260461e-02 5.260461e-02 0.9986 -40.065 16.1873)" class="st1" cx="287.5" cy="769.2" rx="16.9" ry="16.9"/>
		
			<ellipse transform="matrix(0.9986 -5.260448e-02 5.260448e-02 0.9986 -42.8212 20.4901)" class="st1" cx="367.8" cy="823.7" rx="14" ry="14"/>
		
			<ellipse transform="matrix(0.9986 -5.260453e-02 5.260453e-02 0.9986 -43.6077 25.4511)" class="st1" cx="461.7" cy="841.1" rx="11.2" ry="11.2"/>
		
			<ellipse transform="matrix(0.9986 -5.260418e-02 5.260418e-02 0.9986 -42.5595 30.4227)" class="st1" cx="556.7" cy="823.7" rx="8.4" ry="8.4"/>
		<circle class="st1" cx="637" cy="769.2" r="5.6"/>
	</g>
</g>
</svg>
